<mxfile host="app.diagrams.net" agent="Mozilla/5.0 (Windows NT 10.0; Win64; x64) AppleWebKit/537.36 (KHTML, like Gecko) Chrome/129.0.0.0 Safari/537.36 Edg/129.0.0.0" version="24.7.17">
  <diagram name="Page-1" id="g8BFMvQkJYYf2HMKxNgg">
    <mxGraphModel dx="5123" dy="1613" grid="1" gridSize="10" guides="1" tooltips="1" connect="1" arrows="1" fold="1" page="1" pageScale="1" pageWidth="850" pageHeight="1100" math="0" shadow="0">
      <root>
        <mxCell id="0" />
        <mxCell id="1" parent="0" />
        <mxCell id="euQZXy2oWvaSn2GUDJ0l-6" value="created based on&amp;nbsp;" style="edgeStyle=orthogonalEdgeStyle;rounded=0;orthogonalLoop=1;jettySize=auto;html=1;" parent="1" source="euQZXy2oWvaSn2GUDJ0l-1" edge="1">
          <mxGeometry relative="1" as="geometry">
            <mxPoint x="102.11000000000013" y="140" as="targetPoint" />
          </mxGeometry>
        </mxCell>
        <mxCell id="euQZXy2oWvaSn2GUDJ0l-1" value="Task" style="sketch=0;outlineConnect=0;fontColor=#232F3E;gradientColor=none;fillColor=#ED7100;strokeColor=none;dashed=0;verticalLabelPosition=bottom;verticalAlign=top;align=center;html=1;fontSize=12;fontStyle=0;aspect=fixed;pointerEvents=1;shape=mxgraph.aws4.ecs_task;" parent="1" vertex="1">
          <mxGeometry x="83.61000000000001" y="310" width="37" height="48" as="geometry" />
        </mxCell>
        <mxCell id="euQZXy2oWvaSn2GUDJ0l-2" value="1" style="ellipse;whiteSpace=wrap;html=1;aspect=fixed;fillColor=#f8cecc;strokeColor=#b85450;" parent="1" vertex="1">
          <mxGeometry x="60" y="40" width="20" height="20" as="geometry" />
        </mxCell>
        <mxCell id="euQZXy2oWvaSn2GUDJ0l-4" value="Un archivo JSON que describe las propiedades de los contenedores (max 10) que se ejecutarán en ECS, tales como imagenes Docker, puertos, CPU, memoria, roles IAM, logging, etc" style="text;html=1;align=left;verticalAlign=middle;whiteSpace=wrap;rounded=0;strokeColor=default;dashed=1;" parent="1" vertex="1">
          <mxGeometry x="140" y="60" width="290" height="60" as="geometry" />
        </mxCell>
        <mxCell id="euQZXy2oWvaSn2GUDJ0l-5" value="&lt;span style=&quot;color: rgb(35, 47, 62); background-color: rgb(251, 251, 251);&quot;&gt;Task definition&lt;/span&gt;" style="image;aspect=fixed;html=1;points=[];align=center;fontSize=12;image=img/lib/azure2/general/File.svg;" parent="1" vertex="1">
          <mxGeometry x="80" y="62.75" width="44.23" height="54.5" as="geometry" />
        </mxCell>
        <mxCell id="euQZXy2oWvaSn2GUDJ0l-7" value="Un task es simplemente una instancia del Task definition dentro de ECS" style="text;html=1;align=left;verticalAlign=middle;whiteSpace=wrap;rounded=0;strokeColor=default;dashed=1;" parent="1" vertex="1">
          <mxGeometry x="140" y="310" width="290" height="60" as="geometry" />
        </mxCell>
        <mxCell id="euQZXy2oWvaSn2GUDJ0l-8" value="2" style="ellipse;whiteSpace=wrap;html=1;aspect=fixed;fillColor=#f8cecc;strokeColor=#b85450;" parent="1" vertex="1">
          <mxGeometry x="60" y="300" width="20" height="20" as="geometry" />
        </mxCell>
        <mxCell id="euQZXy2oWvaSn2GUDJ0l-10" value="mantain a specific&amp;nbsp;&lt;div&gt;number of tasks&lt;/div&gt;" style="edgeStyle=orthogonalEdgeStyle;rounded=0;orthogonalLoop=1;jettySize=auto;html=1;" parent="1" source="euQZXy2oWvaSn2GUDJ0l-9" edge="1">
          <mxGeometry relative="1" as="geometry">
            <mxPoint x="290" y="520" as="targetPoint" />
          </mxGeometry>
        </mxCell>
        <mxCell id="euQZXy2oWvaSn2GUDJ0l-9" value="Service" style="sketch=0;outlineConnect=0;fontColor=#232F3E;gradientColor=none;fillColor=#ED7100;strokeColor=none;dashed=0;verticalLabelPosition=bottom;verticalAlign=top;align=center;html=1;fontSize=12;fontStyle=0;aspect=fixed;pointerEvents=1;shape=mxgraph.aws4.ecs_service;" parent="1" vertex="1">
          <mxGeometry x="87" y="500" width="39" height="48" as="geometry" />
        </mxCell>
        <mxCell id="euQZXy2oWvaSn2GUDJ0l-12" value="3" style="ellipse;whiteSpace=wrap;html=1;aspect=fixed;fillColor=#f8cecc;strokeColor=#b85450;" parent="1" vertex="1">
          <mxGeometry x="61.76999999999998" y="490" width="20" height="20" as="geometry" />
        </mxCell>
        <mxCell id="euQZXy2oWvaSn2GUDJ0l-13" value="" style="sketch=0;outlineConnect=0;fontColor=#232F3E;gradientColor=none;fillColor=#ED7100;strokeColor=none;dashed=0;verticalLabelPosition=bottom;verticalAlign=top;align=center;html=1;fontSize=12;fontStyle=0;aspect=fixed;pointerEvents=1;shape=mxgraph.aws4.ecs_task;" parent="1" vertex="1">
          <mxGeometry x="300" y="500" width="37" height="48" as="geometry" />
        </mxCell>
        <mxCell id="euQZXy2oWvaSn2GUDJ0l-14" value="" style="sketch=0;outlineConnect=0;fontColor=#232F3E;gradientColor=none;fillColor=#ED7100;strokeColor=none;dashed=0;verticalLabelPosition=bottom;verticalAlign=top;align=center;html=1;fontSize=12;fontStyle=0;aspect=fixed;pointerEvents=1;shape=mxgraph.aws4.ecs_task;" parent="1" vertex="1">
          <mxGeometry x="351.77" y="500" width="37" height="48" as="geometry" />
        </mxCell>
        <mxCell id="euQZXy2oWvaSn2GUDJ0l-15" value="" style="sketch=0;outlineConnect=0;fontColor=#232F3E;gradientColor=none;fillColor=#ED7100;strokeColor=none;dashed=0;verticalLabelPosition=bottom;verticalAlign=top;align=center;html=1;fontSize=12;fontStyle=0;aspect=fixed;pointerEvents=1;shape=mxgraph.aws4.ecs_task;" parent="1" vertex="1">
          <mxGeometry x="401.77" y="500" width="37" height="48" as="geometry" />
        </mxCell>
        <mxCell id="euQZXy2oWvaSn2GUDJ0l-16" value="ECS CLUSTER" style="points=[[0,0],[0.25,0],[0.5,0],[0.75,0],[1,0],[1,0.25],[1,0.5],[1,0.75],[1,1],[0.75,1],[0.5,1],[0.25,1],[0,1],[0,0.75],[0,0.5],[0,0.25]];outlineConnect=0;gradientColor=none;html=1;whiteSpace=wrap;fontSize=12;fontStyle=0;container=1;pointerEvents=0;collapsible=0;recursiveResize=0;shape=mxgraph.aws4.group;grIcon=mxgraph.aws4.group_vpc2;strokeColor=#FF8000;fillColor=none;verticalAlign=top;align=left;spacingLeft=30;fontColor=#AAB7B8;dashed=0;" parent="1" vertex="1">
          <mxGeometry x="-10" y="440" width="560" height="250" as="geometry" />
        </mxCell>
        <mxCell id="euQZXy2oWvaSn2GUDJ0l-18" value="Region" style="points=[[0,0],[0.25,0],[0.5,0],[0.75,0],[1,0],[1,0.25],[1,0.5],[1,0.75],[1,1],[0.75,1],[0.5,1],[0.25,1],[0,1],[0,0.75],[0,0.5],[0,0.25]];outlineConnect=0;gradientColor=none;html=1;whiteSpace=wrap;fontSize=12;fontStyle=0;container=1;pointerEvents=0;collapsible=0;recursiveResize=0;shape=mxgraph.aws4.group;grIcon=mxgraph.aws4.group_region;strokeColor=#00A4A6;fillColor=none;verticalAlign=top;align=left;spacingLeft=30;fontColor=#147EBA;dashed=1;" parent="euQZXy2oWvaSn2GUDJ0l-16" vertex="1">
          <mxGeometry x="-30" y="-30" width="590" height="280" as="geometry" />
        </mxCell>
        <mxCell id="euQZXy2oWvaSn2GUDJ0l-17" value="Un cluster agrupa agrupa lógicamente nuestras Tasks o Services u otros recursos de ECS relacionados, tales como instances de containers&amp;nbsp;" style="text;html=1;align=left;verticalAlign=middle;whiteSpace=wrap;rounded=0;strokeColor=default;dashed=1;" parent="1" vertex="1">
          <mxGeometry x="-10" y="600" width="460" height="30" as="geometry" />
        </mxCell>
        <mxCell id="euQZXy2oWvaSn2GUDJ0l-19" value="Launch Types" style="text;html=1;align=center;verticalAlign=middle;whiteSpace=wrap;rounded=0;" parent="1" vertex="1">
          <mxGeometry x="660" y="730" width="80" height="20" as="geometry" />
        </mxCell>
        <mxCell id="euQZXy2oWvaSn2GUDJ0l-22" value="ECS CLUSTER" style="points=[[0,0],[0.25,0],[0.5,0],[0.75,0],[1,0],[1,0.25],[1,0.5],[1,0.75],[1,1],[0.75,1],[0.5,1],[0.25,1],[0,1],[0,0.75],[0,0.5],[0,0.25]];outlineConnect=0;gradientColor=none;html=1;whiteSpace=wrap;fontSize=12;fontStyle=0;container=1;pointerEvents=0;collapsible=0;recursiveResize=0;shape=mxgraph.aws4.group;grIcon=mxgraph.aws4.group_vpc2;strokeColor=#FF8000;fillColor=none;verticalAlign=top;align=left;spacingLeft=30;fontColor=#AAB7B8;dashed=0;" parent="1" vertex="1">
          <mxGeometry x="860" y="440" width="550" height="440" as="geometry" />
        </mxCell>
        <mxCell id="euQZXy2oWvaSn2GUDJ0l-24" value="Service" style="sketch=0;outlineConnect=0;fontColor=#232F3E;gradientColor=none;fillColor=#ED7100;strokeColor=none;dashed=0;verticalLabelPosition=bottom;verticalAlign=top;align=center;html=1;fontSize=12;fontStyle=0;aspect=fixed;pointerEvents=1;shape=mxgraph.aws4.ecs_service;" parent="euQZXy2oWvaSn2GUDJ0l-22" vertex="1">
          <mxGeometry x="100" y="314.5" width="60.94" height="75" as="geometry" />
        </mxCell>
        <mxCell id="euQZXy2oWvaSn2GUDJ0l-25" value="" style="rounded=1;arcSize=10;dashed=0;fillColor=default;gradientColor=none;strokeWidth=2;" parent="euQZXy2oWvaSn2GUDJ0l-22" vertex="1">
          <mxGeometry x="200" y="29" width="140" height="130" as="geometry" />
        </mxCell>
        <mxCell id="euQZXy2oWvaSn2GUDJ0l-26" value="" style="dashed=0;html=1;shape=mxgraph.aws3.instance;fillColor=#F58536;gradientColor=none;dashed=0;" parent="euQZXy2oWvaSn2GUDJ0l-22" vertex="1">
          <mxGeometry x="210" y="10" width="40" height="39" as="geometry" />
        </mxCell>
        <mxCell id="euQZXy2oWvaSn2GUDJ0l-27" value="Task" style="sketch=0;outlineConnect=0;fontColor=#232F3E;gradientColor=none;fillColor=#ED7100;strokeColor=none;dashed=0;verticalLabelPosition=bottom;verticalAlign=top;align=center;html=1;fontSize=12;fontStyle=0;aspect=fixed;pointerEvents=1;shape=mxgraph.aws4.ecs_task;" parent="euQZXy2oWvaSn2GUDJ0l-22" vertex="1">
          <mxGeometry x="213" y="85.5" width="37" height="48" as="geometry" />
        </mxCell>
        <mxCell id="euQZXy2oWvaSn2GUDJ0l-35" style="rounded=0;orthogonalLoop=1;jettySize=auto;html=1;" parent="euQZXy2oWvaSn2GUDJ0l-22" source="euQZXy2oWvaSn2GUDJ0l-24" target="euQZXy2oWvaSn2GUDJ0l-27" edge="1">
          <mxGeometry relative="1" as="geometry" />
        </mxCell>
        <mxCell id="euQZXy2oWvaSn2GUDJ0l-39" value="Container instances" style="text;html=1;align=center;verticalAlign=middle;whiteSpace=wrap;rounded=0;fontStyle=1" parent="euQZXy2oWvaSn2GUDJ0l-22" vertex="1">
          <mxGeometry x="415" y="350" width="130" height="20" as="geometry" />
        </mxCell>
        <mxCell id="euQZXy2oWvaSn2GUDJ0l-29" value="" style="rounded=1;arcSize=10;dashed=0;fillColor=default;gradientColor=none;strokeWidth=2;" parent="euQZXy2oWvaSn2GUDJ0l-22" vertex="1">
          <mxGeometry x="260" y="113.5" width="140" height="130" as="geometry" />
        </mxCell>
        <mxCell id="euQZXy2oWvaSn2GUDJ0l-30" value="" style="dashed=0;html=1;shape=mxgraph.aws3.instance;fillColor=#F58536;gradientColor=none;dashed=0;" parent="euQZXy2oWvaSn2GUDJ0l-22" vertex="1">
          <mxGeometry x="270" y="94.5" width="40" height="39" as="geometry" />
        </mxCell>
        <mxCell id="euQZXy2oWvaSn2GUDJ0l-31" value="Task" style="sketch=0;outlineConnect=0;fontColor=#232F3E;gradientColor=none;fillColor=#ED7100;strokeColor=none;dashed=0;verticalLabelPosition=bottom;verticalAlign=top;align=center;html=1;fontSize=12;fontStyle=0;aspect=fixed;pointerEvents=1;shape=mxgraph.aws4.ecs_task;" parent="euQZXy2oWvaSn2GUDJ0l-22" vertex="1">
          <mxGeometry x="280" y="153" width="37" height="48" as="geometry" />
        </mxCell>
        <mxCell id="euQZXy2oWvaSn2GUDJ0l-36" style="rounded=0;orthogonalLoop=1;jettySize=auto;html=1;" parent="euQZXy2oWvaSn2GUDJ0l-22" source="euQZXy2oWvaSn2GUDJ0l-24" target="euQZXy2oWvaSn2GUDJ0l-31" edge="1">
          <mxGeometry relative="1" as="geometry" />
        </mxCell>
        <mxCell id="euQZXy2oWvaSn2GUDJ0l-32" value="" style="rounded=1;arcSize=10;dashed=0;fillColor=default;gradientColor=none;strokeWidth=2;" parent="euQZXy2oWvaSn2GUDJ0l-22" vertex="1">
          <mxGeometry x="330" y="209.5" width="140" height="130" as="geometry" />
        </mxCell>
        <mxCell id="euQZXy2oWvaSn2GUDJ0l-33" value="" style="dashed=0;html=1;shape=mxgraph.aws3.instance;fillColor=#F58536;gradientColor=none;dashed=0;" parent="euQZXy2oWvaSn2GUDJ0l-22" vertex="1">
          <mxGeometry x="340" y="190.5" width="40" height="39" as="geometry" />
        </mxCell>
        <mxCell id="euQZXy2oWvaSn2GUDJ0l-34" value="Task" style="sketch=0;outlineConnect=0;fontColor=#232F3E;gradientColor=none;fillColor=#ED7100;strokeColor=none;dashed=0;verticalLabelPosition=bottom;verticalAlign=top;align=center;html=1;fontSize=12;fontStyle=0;aspect=fixed;pointerEvents=1;shape=mxgraph.aws4.ecs_task;" parent="euQZXy2oWvaSn2GUDJ0l-22" vertex="1">
          <mxGeometry x="341.5" y="235.5" width="37" height="48" as="geometry" />
        </mxCell>
        <mxCell id="euQZXy2oWvaSn2GUDJ0l-37" style="rounded=0;orthogonalLoop=1;jettySize=auto;html=1;" parent="euQZXy2oWvaSn2GUDJ0l-22" source="euQZXy2oWvaSn2GUDJ0l-24" target="euQZXy2oWvaSn2GUDJ0l-34" edge="1">
          <mxGeometry relative="1" as="geometry" />
        </mxCell>
        <mxCell id="euQZXy2oWvaSn2GUDJ0l-38" value="&lt;b&gt;EC2 Launch Type:&lt;/b&gt; Configurar nuestras instancias EC2 es nuestra responsabilidad, asi como todas las tareas de administración de servidores, parchado, upgrading el agente ECS en nuestras container instances, etc." style="text;html=1;align=left;verticalAlign=middle;whiteSpace=wrap;rounded=0;strokeColor=default;dashed=1;" parent="1" vertex="1">
          <mxGeometry x="860" y="380" width="550" height="50" as="geometry" />
        </mxCell>
        <mxCell id="euQZXy2oWvaSn2GUDJ0l-40" value="&lt;b&gt;AWS Fargate Launch Type:&lt;/b&gt;&amp;nbsp;AWS mantiene nuestra infraestructura por nosotros, es decir nuestras instancias EC2, garantizando asi alto disponibilidad y escalabilidad suficiente, es una opción &lt;b&gt;serverless &lt;/b&gt;para desplegar nuestros contenedores en ECS, enfocandonos asi en construir nuestros contenedores Docker y desplegandolos en task aisladas o services" style="text;html=1;align=left;verticalAlign=middle;whiteSpace=wrap;rounded=0;strokeColor=default;dashed=1;" parent="1" vertex="1">
          <mxGeometry x="1460" y="370" width="550" height="60" as="geometry" />
        </mxCell>
        <mxCell id="euQZXy2oWvaSn2GUDJ0l-41" value="ECS CLUSTER" style="points=[[0,0],[0.25,0],[0.5,0],[0.75,0],[1,0],[1,0.25],[1,0.5],[1,0.75],[1,1],[0.75,1],[0.5,1],[0.25,1],[0,1],[0,0.75],[0,0.5],[0,0.25]];outlineConnect=0;gradientColor=none;html=1;whiteSpace=wrap;fontSize=12;fontStyle=0;container=1;pointerEvents=0;collapsible=0;recursiveResize=0;shape=mxgraph.aws4.group;grIcon=mxgraph.aws4.group_vpc2;strokeColor=#FF8000;fillColor=none;verticalAlign=top;align=left;spacingLeft=30;fontColor=#AAB7B8;dashed=0;" parent="1" vertex="1">
          <mxGeometry x="1460" y="440" width="550" height="440" as="geometry" />
        </mxCell>
        <mxCell id="euQZXy2oWvaSn2GUDJ0l-42" value="Service" style="sketch=0;outlineConnect=0;fontColor=#232F3E;gradientColor=none;fillColor=#ED7100;strokeColor=none;dashed=0;verticalLabelPosition=bottom;verticalAlign=top;align=center;html=1;fontSize=12;fontStyle=0;aspect=fixed;pointerEvents=1;shape=mxgraph.aws4.ecs_service;" parent="euQZXy2oWvaSn2GUDJ0l-41" vertex="1">
          <mxGeometry x="50" y="160.5" width="60.94" height="75" as="geometry" />
        </mxCell>
        <mxCell id="euQZXy2oWvaSn2GUDJ0l-45" value="Task" style="sketch=0;outlineConnect=0;fontColor=#232F3E;gradientColor=none;fillColor=#ED7100;strokeColor=none;dashed=0;verticalLabelPosition=bottom;verticalAlign=top;align=center;html=1;fontSize=12;fontStyle=0;aspect=fixed;pointerEvents=1;shape=mxgraph.aws4.ecs_task;" parent="euQZXy2oWvaSn2GUDJ0l-41" vertex="1">
          <mxGeometry x="213" y="85.5" width="37" height="48" as="geometry" />
        </mxCell>
        <mxCell id="euQZXy2oWvaSn2GUDJ0l-46" style="rounded=0;orthogonalLoop=1;jettySize=auto;html=1;" parent="euQZXy2oWvaSn2GUDJ0l-41" source="euQZXy2oWvaSn2GUDJ0l-42" target="euQZXy2oWvaSn2GUDJ0l-45" edge="1">
          <mxGeometry relative="1" as="geometry" />
        </mxCell>
        <mxCell id="euQZXy2oWvaSn2GUDJ0l-50" value="Task" style="sketch=0;outlineConnect=0;fontColor=#232F3E;gradientColor=none;fillColor=#ED7100;strokeColor=none;dashed=0;verticalLabelPosition=bottom;verticalAlign=top;align=center;html=1;fontSize=12;fontStyle=0;aspect=fixed;pointerEvents=1;shape=mxgraph.aws4.ecs_task;" parent="euQZXy2oWvaSn2GUDJ0l-41" vertex="1">
          <mxGeometry x="280" y="153" width="37" height="48" as="geometry" />
        </mxCell>
        <mxCell id="euQZXy2oWvaSn2GUDJ0l-51" style="rounded=0;orthogonalLoop=1;jettySize=auto;html=1;" parent="euQZXy2oWvaSn2GUDJ0l-41" source="euQZXy2oWvaSn2GUDJ0l-42" target="euQZXy2oWvaSn2GUDJ0l-50" edge="1">
          <mxGeometry relative="1" as="geometry" />
        </mxCell>
        <mxCell id="euQZXy2oWvaSn2GUDJ0l-54" value="Task" style="sketch=0;outlineConnect=0;fontColor=#232F3E;gradientColor=none;fillColor=#ED7100;strokeColor=none;dashed=0;verticalLabelPosition=bottom;verticalAlign=top;align=center;html=1;fontSize=12;fontStyle=0;aspect=fixed;pointerEvents=1;shape=mxgraph.aws4.ecs_task;" parent="euQZXy2oWvaSn2GUDJ0l-41" vertex="1">
          <mxGeometry x="341.5" y="235.5" width="37" height="48" as="geometry" />
        </mxCell>
        <mxCell id="euQZXy2oWvaSn2GUDJ0l-55" style="rounded=0;orthogonalLoop=1;jettySize=auto;html=1;" parent="euQZXy2oWvaSn2GUDJ0l-41" source="euQZXy2oWvaSn2GUDJ0l-42" target="euQZXy2oWvaSn2GUDJ0l-54" edge="1">
          <mxGeometry relative="1" as="geometry" />
        </mxCell>
        <mxCell id="euQZXy2oWvaSn2GUDJ0l-56" value="AWS Fargate" style="sketch=0;outlineConnect=0;gradientColor=none;html=1;whiteSpace=wrap;fontSize=12;fontStyle=0;shape=mxgraph.aws4.group;grIcon=mxgraph.aws4.group_aws_cloud;strokeColor=#FF8000;fillColor=none;verticalAlign=top;align=left;spacingLeft=30;fontColor=#AAB7B8;dashed=0;" parent="euQZXy2oWvaSn2GUDJ0l-41" vertex="1">
          <mxGeometry x="200" y="44.5" width="230" height="295.5" as="geometry" />
        </mxCell>
        <mxCell id="euQZXy2oWvaSn2GUDJ0l-57" value="" style="sketch=0;points=[[0,0,0],[0.25,0,0],[0.5,0,0],[0.75,0,0],[1,0,0],[0,1,0],[0.25,1,0],[0.5,1,0],[0.75,1,0],[1,1,0],[0,0.25,0],[0,0.5,0],[0,0.75,0],[1,0.25,0],[1,0.5,0],[1,0.75,0]];outlineConnect=0;fontColor=#232F3E;fillColor=#ED7100;strokeColor=#ffffff;dashed=0;verticalLabelPosition=bottom;verticalAlign=top;align=center;html=1;fontSize=12;fontStyle=0;aspect=fixed;shape=mxgraph.aws4.resourceIcon;resIcon=mxgraph.aws4.fargate;" parent="euQZXy2oWvaSn2GUDJ0l-41" vertex="1">
          <mxGeometry x="200" y="44.5" width="30" height="30" as="geometry" />
        </mxCell>
        <mxCell id="euQZXy2oWvaSn2GUDJ0l-58" value="managed by AWS" style="text;html=1;align=center;verticalAlign=middle;whiteSpace=wrap;rounded=0;" parent="euQZXy2oWvaSn2GUDJ0l-41" vertex="1">
          <mxGeometry x="330" y="310" width="100" height="30" as="geometry" />
        </mxCell>
        <mxCell id="euQZXy2oWvaSn2GUDJ0l-61" style="edgeStyle=orthogonalEdgeStyle;rounded=0;orthogonalLoop=1;jettySize=auto;html=1;entryX=-0.014;entryY=0.475;entryDx=0;entryDy=0;entryPerimeter=0;" parent="1" source="euQZXy2oWvaSn2GUDJ0l-60" target="euQZXy2oWvaSn2GUDJ0l-62" edge="1">
          <mxGeometry relative="1" as="geometry">
            <mxPoint x="1050" y="125" as="targetPoint" />
          </mxGeometry>
        </mxCell>
        <mxCell id="euQZXy2oWvaSn2GUDJ0l-60" value="Dockerfile" style="verticalLabelPosition=bottom;html=1;verticalAlign=top;align=center;strokeColor=none;fillColor=#00BEF2;shape=mxgraph.azure.file_2;pointerEvents=1;" parent="1" vertex="1">
          <mxGeometry x="890" y="100" width="40" height="50" as="geometry" />
        </mxCell>
        <mxCell id="euQZXy2oWvaSn2GUDJ0l-64" style="edgeStyle=orthogonalEdgeStyle;rounded=0;orthogonalLoop=1;jettySize=auto;html=1;" parent="1" source="euQZXy2oWvaSn2GUDJ0l-62" target="euQZXy2oWvaSn2GUDJ0l-63" edge="1">
          <mxGeometry relative="1" as="geometry" />
        </mxCell>
        <mxCell id="euQZXy2oWvaSn2GUDJ0l-62" value="Image" style="image;aspect=fixed;html=1;points=[];align=center;fontSize=12;image=img/lib/azure2/general/Image.svg;" parent="1" vertex="1">
          <mxGeometry x="1120" y="104" width="64" height="44" as="geometry" />
        </mxCell>
        <mxCell id="euQZXy2oWvaSn2GUDJ0l-63" value="Container" style="sketch=0;outlineConnect=0;fontColor=#232F3E;gradientColor=none;fillColor=#ED7100;strokeColor=none;dashed=0;verticalLabelPosition=bottom;verticalAlign=top;align=center;html=1;fontSize=12;fontStyle=0;aspect=fixed;pointerEvents=1;shape=mxgraph.aws4.container_1;" parent="1" vertex="1">
          <mxGeometry x="1380" y="110.5" width="48" height="31" as="geometry" />
        </mxCell>
        <mxCell id="euQZXy2oWvaSn2GUDJ0l-65" value="&lt;span&gt;Docker contruye una imagen apartir de un archivo de instrucciones llamado Dockerfile.&lt;/span&gt;" style="text;html=1;align=left;verticalAlign=middle;whiteSpace=wrap;rounded=0;strokeColor=default;dashed=1;fontStyle=0" parent="1" vertex="1">
          <mxGeometry x="1060" y="180" width="190" height="50" as="geometry" />
        </mxCell>
        <mxCell id="euQZXy2oWvaSn2GUDJ0l-66" value="Un archivo &lt;b&gt;Dockerfile &lt;/b&gt;contiene todos los comandos para construir una imagen paso a paso" style="text;html=1;align=left;verticalAlign=middle;whiteSpace=wrap;rounded=0;strokeColor=default;dashed=1;fontStyle=0" parent="1" vertex="1">
          <mxGeometry x="815" y="40" width="190" height="50" as="geometry" />
        </mxCell>
        <mxCell id="euQZXy2oWvaSn2GUDJ0l-67" value="" style="html=1;verticalLabelPosition=bottom;labelBackgroundColor=#ffffff;verticalAlign=top;shadow=0;dashed=0;strokeWidth=2;shape=mxgraph.ios7.misc.info;strokeColor=#0080f0;sketch=0;" parent="1" vertex="1">
          <mxGeometry x="1053" y="172" width="12" height="12" as="geometry" />
        </mxCell>
        <mxCell id="euQZXy2oWvaSn2GUDJ0l-68" value="&lt;span&gt;Un contenedor es algo asi como una &quot;instancia&quot; de nuestra imagen construida. Podemos tener multiples contenedores que manejen como molde base una misma imagen&lt;/span&gt;" style="text;html=1;align=left;verticalAlign=middle;whiteSpace=wrap;rounded=0;strokeColor=default;dashed=1;fontStyle=0" parent="1" vertex="1">
          <mxGeometry x="1290" y="48" width="267.5" height="56" as="geometry" />
        </mxCell>
        <mxCell id="euQZXy2oWvaSn2GUDJ0l-69" value="" style="html=1;verticalLabelPosition=bottom;labelBackgroundColor=#ffffff;verticalAlign=top;shadow=0;dashed=0;strokeWidth=2;shape=mxgraph.ios7.misc.info;strokeColor=#0080f0;sketch=0;" parent="1" vertex="1">
          <mxGeometry x="1281" y="43" width="12" height="12" as="geometry" />
        </mxCell>
        <mxCell id="hOGlAYSt-k7kGsrkHxPk-1" value="ECR" style="sketch=0;points=[[0,0,0],[0.25,0,0],[0.5,0,0],[0.75,0,0],[1,0,0],[0,1,0],[0.25,1,0],[0.5,1,0],[0.75,1,0],[1,1,0],[0,0.25,0],[0,0.5,0],[0,0.75,0],[1,0.25,0],[1,0.5,0],[1,0.75,0]];outlineConnect=0;fontColor=#232F3E;fillColor=#ED7100;strokeColor=#ffffff;dashed=0;verticalLabelPosition=bottom;verticalAlign=top;align=center;html=1;fontSize=12;fontStyle=0;aspect=fixed;shape=mxgraph.aws4.resourceIcon;resIcon=mxgraph.aws4.ecr;" parent="1" vertex="1">
          <mxGeometry x="540" y="1110" width="78" height="78" as="geometry" />
        </mxCell>
        <mxCell id="hOGlAYSt-k7kGsrkHxPk-2" value="Repository for our &lt;b&gt;Docker images&lt;/b&gt;" style="text;html=1;align=left;verticalAlign=middle;whiteSpace=wrap;rounded=0;strokeColor=default;dashed=1;fontStyle=0" parent="1" vertex="1">
          <mxGeometry x="484" y="1210" width="190" height="20" as="geometry" />
        </mxCell>
        <mxCell id="hOGlAYSt-k7kGsrkHxPk-3" value="&lt;b style=&quot;font-size: 11px;&quot;&gt;Source stage&lt;/b&gt;" style="rounded=0;whiteSpace=wrap;html=1;fillColor=#f5f5f5;verticalAlign=top;align=left;shadow=1;fontColor=#333333;strokeColor=#666666;fontFamily=Roboto Mono;fontSource=https%3A%2F%2Ffonts.googleapis.com%2Fcss%3Ffamily%3DRoboto%2BMono;fontSize=11;" parent="1" vertex="1">
          <mxGeometry x="-368.5" y="1980" width="1028.5" height="360" as="geometry" />
        </mxCell>
        <mxCell id="hOGlAYSt-k7kGsrkHxPk-4" value="Transition" style="shape=flexArrow;endArrow=classic;html=1;rounded=0;endWidth=13.68421052631579;endSize=14.414035087719297;width=15.789473684210526;fontFamily=Roboto Mono;fontSource=https%3A%2F%2Ffonts.googleapis.com%2Fcss%3Ffamily%3DRoboto%2BMono;" parent="1" edge="1">
          <mxGeometry x="-0.1667" width="50" height="50" relative="1" as="geometry">
            <mxPoint x="672" y="2161" as="sourcePoint" />
            <mxPoint x="852" y="2160" as="targetPoint" />
            <mxPoint as="offset" />
          </mxGeometry>
        </mxCell>
        <mxCell id="hOGlAYSt-k7kGsrkHxPk-5" style="edgeStyle=orthogonalEdgeStyle;rounded=0;orthogonalLoop=1;jettySize=auto;html=1;fontFamily=Roboto Mono;fontSource=https%3A%2F%2Ffonts.googleapis.com%2Fcss%3Ffamily%3DRoboto%2BMono;" parent="1" edge="1">
          <mxGeometry relative="1" as="geometry">
            <mxPoint x="742" y="2171" as="targetPoint" />
            <mxPoint x="742" y="2321" as="sourcePoint" />
          </mxGeometry>
        </mxCell>
        <mxCell id="hOGlAYSt-k7kGsrkHxPk-6" value="&lt;div&gt;Transitions, connect stages&lt;/div&gt;" style="text;html=1;align=center;verticalAlign=middle;whiteSpace=wrap;rounded=0;strokeColor=#d6b656;dashed=1;fillColor=#fff2cc;fontFamily=Roboto Mono;fontSource=https%3A%2F%2Ffonts.googleapis.com%2Fcss%3Ffamily%3DRoboto%2BMono;" parent="1" vertex="1">
          <mxGeometry x="677" y="2340" width="160" height="30" as="geometry" />
        </mxCell>
        <mxCell id="hOGlAYSt-k7kGsrkHxPk-7" value="Trigger pipeline execution&amp;nbsp;" style="edgeStyle=orthogonalEdgeStyle;rounded=0;orthogonalLoop=1;jettySize=auto;html=1;fontFamily=Roboto Mono;fontSource=https%3A%2F%2Ffonts.googleapis.com%2Fcss%3Ffamily%3DRoboto%2BMono;" parent="1" edge="1">
          <mxGeometry relative="1" as="geometry">
            <mxPoint x="-697.306818181818" y="2111" as="sourcePoint" />
            <mxPoint x="-314.11420568808603" y="2110.9565217391305" as="targetPoint" />
          </mxGeometry>
        </mxCell>
        <mxCell id="hOGlAYSt-k7kGsrkHxPk-8" value="Action Group 1" style="swimlane;startSize=20;fontFamily=Roboto Mono;fontSource=https%3A%2F%2Ffonts.googleapis.com%2Fcss%3Ffamily%3DRoboto%2BMono;fontSize=11;" parent="1" vertex="1">
          <mxGeometry x="-346.62" y="2010" width="706.7" height="300" as="geometry">
            <mxRectangle x="340" y="-110" width="50" height="40" as="alternateBounds" />
          </mxGeometry>
        </mxCell>
        <mxCell id="hOGlAYSt-k7kGsrkHxPk-9" value="Action 1 [Source]" style="swimlane;startSize=23;fontFamily=Roboto Mono;fontSource=https%3A%2F%2Ffonts.googleapis.com%2Fcss%3Ffamily%3DRoboto%2BMono;fontSize=11;" parent="hOGlAYSt-k7kGsrkHxPk-8" vertex="1">
          <mxGeometry x="16.620000000000005" y="30" width="340.08" height="240" as="geometry">
            <mxRectangle x="-170" y="-320" width="70" height="30" as="alternateBounds" />
          </mxGeometry>
        </mxCell>
        <mxCell id="hOGlAYSt-k7kGsrkHxPk-10" style="edgeStyle=orthogonalEdgeStyle;rounded=0;orthogonalLoop=1;jettySize=auto;html=1;fontFamily=Roboto Mono;fontSource=https%3A%2F%2Ffonts.googleapis.com%2Fcss%3Ffamily%3DRoboto%2BMono;fontSize=11;" parent="hOGlAYSt-k7kGsrkHxPk-9" source="hOGlAYSt-k7kGsrkHxPk-11" edge="1">
          <mxGeometry relative="1" as="geometry">
            <mxPoint x="170" y="90" as="targetPoint" />
          </mxGeometry>
        </mxCell>
        <mxCell id="hOGlAYSt-k7kGsrkHxPk-11" value="This is where you stored your input artifacts for your pipeline. Choose the provider and then provide the connection details." style="text;html=1;align=center;verticalAlign=middle;whiteSpace=wrap;rounded=0;strokeColor=#d6b656;dashed=1;fillColor=#fff2cc;fontFamily=Roboto Mono;fontSource=https%3A%2F%2Ffonts.googleapis.com%2Fcss%3Ffamily%3DRoboto%2BMono;fontSize=9;" parent="hOGlAYSt-k7kGsrkHxPk-9" vertex="1">
          <mxGeometry x="57.06" y="180" width="225.96" height="50" as="geometry" />
        </mxCell>
        <mxCell id="hOGlAYSt-k7kGsrkHxPk-12" value="" style="sketch=0;points=[[0,0,0],[0.25,0,0],[0.5,0,0],[0.75,0,0],[1,0,0],[0,1,0],[0.25,1,0],[0.5,1,0],[0.75,1,0],[1,1,0],[0,0.25,0],[0,0.5,0],[0,0.75,0],[1,0.25,0],[1,0.5,0],[1,0.75,0]];outlineConnect=0;fontColor=#232F3E;fillColor=#C925D1;strokeColor=#ffffff;dashed=0;verticalLabelPosition=bottom;verticalAlign=top;align=center;html=1;fontSize=11;fontStyle=0;aspect=fixed;shape=mxgraph.aws4.resourceIcon;resIcon=mxgraph.aws4.codepipeline;fontFamily=Roboto Mono;fontSource=https%3A%2F%2Ffonts.googleapis.com%2Fcss%3Ffamily%3DRoboto%2BMono;" parent="hOGlAYSt-k7kGsrkHxPk-9" vertex="1">
          <mxGeometry x="20" y="52" width="48" height="48" as="geometry" />
        </mxCell>
        <mxCell id="hOGlAYSt-k7kGsrkHxPk-13" value="Action 2" style="swimlane;startSize=23;fontFamily=Roboto Mono;fontSource=https%3A%2F%2Ffonts.googleapis.com%2Fcss%3Ffamily%3DRoboto%2BMono;fontSize=11;" parent="hOGlAYSt-k7kGsrkHxPk-8" vertex="1">
          <mxGeometry x="366.62" y="30" width="163.38" height="130" as="geometry">
            <mxRectangle x="-170" y="-320" width="70" height="30" as="alternateBounds" />
          </mxGeometry>
        </mxCell>
        <mxCell id="hOGlAYSt-k7kGsrkHxPk-14" value="Action 3" style="swimlane;startSize=23;fontFamily=Roboto Mono;fontSource=https%3A%2F%2Ffonts.googleapis.com%2Fcss%3Ffamily%3DRoboto%2BMono;fontSize=11;" parent="hOGlAYSt-k7kGsrkHxPk-8" vertex="1">
          <mxGeometry x="366.62" y="170" width="163.38" height="100" as="geometry">
            <mxRectangle x="-170" y="-320" width="70" height="30" as="alternateBounds" />
          </mxGeometry>
        </mxCell>
        <mxCell id="hOGlAYSt-k7kGsrkHxPk-15" value="Action 4" style="swimlane;startSize=23;fontFamily=Roboto Mono;fontSource=https%3A%2F%2Ffonts.googleapis.com%2Fcss%3Ffamily%3DRoboto%2BMono;fontSize=11;" parent="hOGlAYSt-k7kGsrkHxPk-8" vertex="1">
          <mxGeometry x="540" y="30" width="150" height="240" as="geometry">
            <mxRectangle x="-170" y="-320" width="70" height="30" as="alternateBounds" />
          </mxGeometry>
        </mxCell>
        <mxCell id="hOGlAYSt-k7kGsrkHxPk-16" value="Action Group 2" style="swimlane;startSize=23;fontFamily=Roboto Mono;fontSource=https%3A%2F%2Ffonts.googleapis.com%2Fcss%3Ffamily%3DRoboto%2BMono;fontSize=11;" parent="1" vertex="1">
          <mxGeometry x="370" y="2010" width="250" height="300" as="geometry" />
        </mxCell>
        <mxCell id="hOGlAYSt-k7kGsrkHxPk-17" value="&lt;b style=&quot;font-size: 11px;&quot;&gt;Deploy stage&lt;/b&gt;" style="rounded=0;whiteSpace=wrap;html=1;fillColor=#f5f5f5;verticalAlign=top;align=left;shadow=1;fontColor=#333333;strokeColor=#666666;fontFamily=Roboto Mono;fontSource=https%3A%2F%2Ffonts.googleapis.com%2Fcss%3Ffamily%3DRoboto%2BMono;fontSize=11;" parent="1" vertex="1">
          <mxGeometry x="882" y="1990" width="1028.5" height="360" as="geometry" />
        </mxCell>
        <mxCell id="hOGlAYSt-k7kGsrkHxPk-18" value="Action Group 1" style="swimlane;startSize=20;fontFamily=Roboto Mono;fontSource=https%3A%2F%2Ffonts.googleapis.com%2Fcss%3Ffamily%3DRoboto%2BMono;fontSize=11;" parent="1" vertex="1">
          <mxGeometry x="903.8800000000001" y="2020" width="706.7" height="300" as="geometry">
            <mxRectangle x="2761.88" y="-340" width="50" height="40" as="alternateBounds" />
          </mxGeometry>
        </mxCell>
        <mxCell id="hOGlAYSt-k7kGsrkHxPk-19" value="Action 1 [Deploy]" style="swimlane;startSize=23;fontFamily=Roboto Mono;fontSource=https%3A%2F%2Ffonts.googleapis.com%2Fcss%3Ffamily%3DRoboto%2BMono;fontSize=11;" parent="hOGlAYSt-k7kGsrkHxPk-18" vertex="1">
          <mxGeometry x="16.620000000000005" y="30" width="340.08" height="240" as="geometry">
            <mxRectangle x="16.620000000000005" y="30" width="70" height="30" as="alternateBounds" />
          </mxGeometry>
        </mxCell>
        <mxCell id="hOGlAYSt-k7kGsrkHxPk-20" value="CodeDeploy" style="sketch=0;points=[[0,0,0],[0.25,0,0],[0.5,0,0],[0.75,0,0],[1,0,0],[0,1,0],[0.25,1,0],[0.5,1,0],[0.75,1,0],[1,1,0],[0,0.25,0],[0,0.5,0],[0,0.75,0],[1,0.25,0],[1,0.5,0],[1,0.75,0]];outlineConnect=0;fontColor=#232F3E;fillColor=#0000FF;strokeColor=#ffffff;dashed=0;verticalLabelPosition=bottom;verticalAlign=top;align=center;html=1;fontSize=9;fontStyle=0;aspect=fixed;shape=mxgraph.aws4.resourceIcon;resIcon=mxgraph.aws4.codedeploy;fontFamily=Roboto Mono;fontSource=https%3A%2F%2Ffonts.googleapis.com%2Fcss%3Ffamily%3DRoboto%2BMono;" parent="hOGlAYSt-k7kGsrkHxPk-19" vertex="1">
          <mxGeometry x="21.5" y="39" width="55" height="55" as="geometry" />
        </mxCell>
        <mxCell id="hOGlAYSt-k7kGsrkHxPk-21" value="Action 2" style="swimlane;startSize=23;fontFamily=Roboto Mono;fontSource=https%3A%2F%2Ffonts.googleapis.com%2Fcss%3Ffamily%3DRoboto%2BMono;fontSize=11;" parent="hOGlAYSt-k7kGsrkHxPk-18" vertex="1">
          <mxGeometry x="366.62" y="30" width="163.38" height="130" as="geometry">
            <mxRectangle x="-170" y="-320" width="70" height="30" as="alternateBounds" />
          </mxGeometry>
        </mxCell>
        <mxCell id="hOGlAYSt-k7kGsrkHxPk-22" value="Action 3" style="swimlane;startSize=23;fontFamily=Roboto Mono;fontSource=https%3A%2F%2Ffonts.googleapis.com%2Fcss%3Ffamily%3DRoboto%2BMono;fontSize=11;" parent="hOGlAYSt-k7kGsrkHxPk-18" vertex="1">
          <mxGeometry x="366.62" y="170" width="163.38" height="100" as="geometry">
            <mxRectangle x="-170" y="-320" width="70" height="30" as="alternateBounds" />
          </mxGeometry>
        </mxCell>
        <mxCell id="hOGlAYSt-k7kGsrkHxPk-23" value="Action 4" style="swimlane;startSize=23;fontFamily=Roboto Mono;fontSource=https%3A%2F%2Ffonts.googleapis.com%2Fcss%3Ffamily%3DRoboto%2BMono;fontSize=11;" parent="hOGlAYSt-k7kGsrkHxPk-18" vertex="1">
          <mxGeometry x="540" y="30" width="150" height="240" as="geometry">
            <mxRectangle x="-170" y="-320" width="70" height="30" as="alternateBounds" />
          </mxGeometry>
        </mxCell>
        <mxCell id="hOGlAYSt-k7kGsrkHxPk-24" value="Action Group 2" style="swimlane;startSize=23;fontFamily=Roboto Mono;fontSource=https%3A%2F%2Ffonts.googleapis.com%2Fcss%3Ffamily%3DRoboto%2BMono;fontSize=11;" parent="1" vertex="1">
          <mxGeometry x="1620.5" y="2020" width="250" height="300" as="geometry" />
        </mxCell>
        <mxCell id="hOGlAYSt-k7kGsrkHxPk-25" value="Deploy provider" style="edgeStyle=orthogonalEdgeStyle;rounded=0;orthogonalLoop=1;jettySize=auto;html=1;fontFamily=Roboto Mono;fontSource=https%3A%2F%2Ffonts.googleapis.com%2Fcss%3Ffamily%3DRoboto%2BMono;" parent="1" edge="1">
          <mxGeometry x="-0.21" y="-9" relative="1" as="geometry">
            <mxPoint x="1159.0100000000002" y="2118.66" as="sourcePoint" />
            <mxPoint x="1007.0842056880856" y="2118.694482758621" as="targetPoint" />
            <mxPoint as="offset" />
          </mxGeometry>
        </mxCell>
        <mxCell id="hOGlAYSt-k7kGsrkHxPk-26" value="" style="sketch=0;points=[[0,0,0],[0.25,0,0],[0.5,0,0],[0.75,0,0],[1,0,0],[0,1,0],[0.25,1,0],[0.5,1,0],[0.75,1,0],[1,1,0],[0,0.25,0],[0,0.5,0],[0,0.75,0],[1,0.25,0],[1,0.5,0],[1,0.75,0]];outlineConnect=0;fontColor=#232F3E;fillColor=#C925D1;strokeColor=#ffffff;dashed=0;verticalLabelPosition=bottom;verticalAlign=top;align=center;html=1;fontSize=12;fontStyle=0;aspect=fixed;shape=mxgraph.aws4.resourceIcon;resIcon=mxgraph.aws4.codepipeline;fontFamily=Roboto Mono;fontSource=https%3A%2F%2Ffonts.googleapis.com%2Fcss%3Ffamily%3DRoboto%2BMono;" parent="1" vertex="1">
          <mxGeometry x="1169" y="2096" width="48" height="48" as="geometry" />
        </mxCell>
        <mxCell id="hOGlAYSt-k7kGsrkHxPk-27" style="edgeStyle=orthogonalEdgeStyle;rounded=0;orthogonalLoop=1;jettySize=auto;html=1;fontFamily=Roboto Mono;fontSource=https%3A%2F%2Ffonts.googleapis.com%2Fcss%3Ffamily%3DRoboto%2BMono;" parent="1" source="hOGlAYSt-k7kGsrkHxPk-28" edge="1">
          <mxGeometry relative="1" as="geometry">
            <mxPoint x="1102" y="2120" as="targetPoint" />
            <Array as="points">
              <mxPoint x="1102" y="2166" />
              <mxPoint x="1103" y="2166" />
              <mxPoint x="1103" y="2120" />
            </Array>
          </mxGeometry>
        </mxCell>
        <mxCell id="hOGlAYSt-k7kGsrkHxPk-28" value="&lt;div&gt;Choose how you deploy to instances. Choose the provider, and then provide the configuration details for that provider.&lt;/div&gt;&lt;div&gt;&lt;br&gt;&lt;/div&gt;" style="text;html=1;align=center;verticalAlign=middle;whiteSpace=wrap;rounded=0;strokeColor=#d6b656;dashed=1;fillColor=#fff2cc;fontFamily=Roboto Mono;fontSource=https%3A%2F%2Ffonts.googleapis.com%2Fcss%3Ffamily%3DRoboto%2BMono;" parent="1" vertex="1">
          <mxGeometry x="942" y="2210" width="310" height="60" as="geometry" />
        </mxCell>
        <mxCell id="hOGlAYSt-k7kGsrkHxPk-29" value="app" style="image;html=1;image=img/lib/clip_art/general/Full_Folder_128x128.png;fontFamily=Roboto Mono;fontSource=https%3A%2F%2Ffonts.googleapis.com%2Fcss%3Ffamily%3DRoboto%2BMono;" parent="1" vertex="1">
          <mxGeometry x="1022" y="2138.13" width="40" height="31" as="geometry" />
        </mxCell>
        <mxCell id="hOGlAYSt-k7kGsrkHxPk-30" value="CodeBuild" style="sketch=0;points=[[0,0,0],[0.25,0,0],[0.5,0,0],[0.75,0,0],[1,0,0],[0,1,0],[0.25,1,0],[0.5,1,0],[0.75,1,0],[1,1,0],[0,0.25,0],[0,0.5,0],[0,0.75,0],[1,0.25,0],[1,0.5,0],[1,0.75,0]];outlineConnect=0;fontColor=#232F3E;fillColor=#FF8000;strokeColor=#ffffff;dashed=0;verticalLabelPosition=top;verticalAlign=bottom;align=center;html=1;fontSize=12;fontStyle=0;aspect=fixed;shape=mxgraph.aws4.resourceIcon;resIcon=mxgraph.aws4.codebuild;fontFamily=Roboto Mono;fontSource=https%3A%2F%2Ffonts.googleapis.com%2Fcss%3Ffamily%3DRoboto%2BMono;horizontal=1;labelPosition=center;" parent="1" vertex="1">
          <mxGeometry x="900" y="1738" width="72" height="72" as="geometry" />
        </mxCell>
        <mxCell id="hOGlAYSt-k7kGsrkHxPk-31" value="CodeCommit&lt;div&gt;&lt;b&gt;Deprecated!&lt;/b&gt;&lt;/div&gt;" style="sketch=0;points=[[0,0,0],[0.25,0,0],[0.5,0,0],[0.75,0,0],[1,0,0],[0,1,0],[0.25,1,0],[0.5,1,0],[0.75,1,0],[1,1,0],[0,0.25,0],[0,0.5,0],[0,0.75,0],[1,0.25,0],[1,0.5,0],[1,0.75,0]];outlineConnect=0;fontColor=#232F3E;fillColor=#FF8000;strokeColor=#ffffff;dashed=0;verticalLabelPosition=bottom;verticalAlign=top;align=center;html=1;fontSize=12;fontStyle=0;aspect=fixed;shape=mxgraph.aws4.resourceIcon;resIcon=mxgraph.aws4.codecommit;fontFamily=Roboto Mono;fontSource=https%3A%2F%2Ffonts.googleapis.com%2Fcss%3Ffamily%3DRoboto%2BMono;" parent="1" vertex="1">
          <mxGeometry x="630" y="1738" width="70" height="70" as="geometry" />
        </mxCell>
        <mxCell id="hOGlAYSt-k7kGsrkHxPk-32" value="CodeDeploy" style="sketch=0;points=[[0,0,0],[0.25,0,0],[0.5,0,0],[0.75,0,0],[1,0,0],[0,1,0],[0.25,1,0],[0.5,1,0],[0.75,1,0],[1,1,0],[0,0.25,0],[0,0.5,0],[0,0.75,0],[1,0.25,0],[1,0.5,0],[1,0.75,0]];outlineConnect=0;fontColor=#232F3E;fillColor=#FF8000;strokeColor=#ffffff;dashed=0;verticalLabelPosition=bottom;verticalAlign=top;align=center;html=1;fontSize=12;fontStyle=0;aspect=fixed;shape=mxgraph.aws4.resourceIcon;resIcon=mxgraph.aws4.codedeploy;fontFamily=Roboto Mono;fontSource=https%3A%2F%2Ffonts.googleapis.com%2Fcss%3Ffamily%3DRoboto%2BMono;" parent="1" vertex="1">
          <mxGeometry x="810" y="1738" width="70" height="70" as="geometry" />
        </mxCell>
        <mxCell id="hOGlAYSt-k7kGsrkHxPk-33" value="CodePipeline" style="sketch=0;points=[[0,0,0],[0.25,0,0],[0.5,0,0],[0.75,0,0],[1,0,0],[0,1,0],[0.25,1,0],[0.5,1,0],[0.75,1,0],[1,1,0],[0,0.25,0],[0,0.5,0],[0,0.75,0],[1,0.25,0],[1,0.5,0],[1,0.75,0]];outlineConnect=0;fontColor=#232F3E;fillColor=#FF8000;strokeColor=#ffffff;dashed=0;verticalLabelPosition=bottom;verticalAlign=top;align=center;html=1;fontSize=12;fontStyle=0;aspect=fixed;shape=mxgraph.aws4.resourceIcon;resIcon=mxgraph.aws4.codepipeline;fontFamily=Roboto Mono;fontSource=https%3A%2F%2Ffonts.googleapis.com%2Fcss%3Ffamily%3DRoboto%2BMono;" parent="1" vertex="1">
          <mxGeometry x="722" y="1738" width="70" height="70" as="geometry" />
        </mxCell>
        <mxCell id="hOGlAYSt-k7kGsrkHxPk-34" value="AWS Developer Tools" style="text;html=1;align=center;verticalAlign=middle;whiteSpace=wrap;rounded=0;fontFamily=Roboto Mono;fontSource=https%3A%2F%2Ffonts.googleapis.com%2Fcss%3Ffamily%3DRoboto%2BMono;" parent="1" vertex="1">
          <mxGeometry x="662" y="1680" width="278" height="30" as="geometry" />
        </mxCell>
        <mxCell id="hOGlAYSt-k7kGsrkHxPk-35" value="" style="shape=image;html=1;verticalAlign=bottom;verticalLabelPosition=top;labelBackgroundColor=none;imageAspect=0;aspect=fixed;image=https://cdn1.iconfinder.com/data/icons/picons-social/57/github_rounded-128.png;labelPosition=center;align=center;fontFamily=Roboto Mono;fontSource=https%3A%2F%2Ffonts.googleapis.com%2Fcss%3Ffamily%3DRoboto%2BMono;fontSize=9;" parent="1" vertex="1">
          <mxGeometry x="-45" y="2093.5" width="45" height="45" as="geometry" />
        </mxCell>
        <mxCell id="hOGlAYSt-k7kGsrkHxPk-36" value="Developers&lt;div&gt;commit and push&lt;/div&gt;&lt;div&gt;changes to Github&lt;/div&gt;&lt;div&gt;repository remote&lt;/div&gt;" style="sketch=0;outlineConnect=0;fontColor=#232F3E;gradientColor=none;fillColor=#232F3D;strokeColor=none;dashed=0;verticalLabelPosition=bottom;verticalAlign=top;align=center;html=1;fontSize=12;fontStyle=0;aspect=fixed;pointerEvents=1;shape=mxgraph.aws4.users;" parent="1" vertex="1">
          <mxGeometry x="-770" y="2079.5" width="59" height="59" as="geometry" />
        </mxCell>
        <mxCell id="hOGlAYSt-k7kGsrkHxPk-37" value="Source provider" style="edgeStyle=orthogonalEdgeStyle;rounded=0;orthogonalLoop=1;jettySize=auto;html=1;exitX=1;exitY=0.5;exitDx=0;exitDy=0;exitPerimeter=0;fontFamily=Roboto Mono;fontSource=https%3A%2F%2Ffonts.googleapis.com%2Fcss%3Ffamily%3DRoboto%2BMono;fontSize=11;entryX=0;entryY=0.5;entryDx=0;entryDy=0;" parent="1" source="hOGlAYSt-k7kGsrkHxPk-12" target="hOGlAYSt-k7kGsrkHxPk-35" edge="1">
          <mxGeometry x="-0.0662" y="10" relative="1" as="geometry">
            <mxPoint x="-261.92" y="2112" as="targetPoint" />
            <mxPoint x="-71.92000000000002" y="2112" as="sourcePoint" />
            <mxPoint as="offset" />
          </mxGeometry>
        </mxCell>
        <mxCell id="hOGlAYSt-k7kGsrkHxPk-38" value="Filters: push: Include branches: main" style="text;html=1;align=left;verticalAlign=middle;whiteSpace=wrap;rounded=0;dashed=1;strokeColor=none;" parent="1" vertex="1">
          <mxGeometry x="-610" y="2127.63" width="200" height="10.87" as="geometry" />
        </mxCell>
        <mxCell id="hOGlAYSt-k7kGsrkHxPk-39" style="edgeStyle=orthogonalEdgeStyle;rounded=0;orthogonalLoop=1;jettySize=auto;html=1;dashed=1;exitX=0.5;exitY=0;exitDx=0;exitDy=0;exitPerimeter=0;" parent="1" source="hOGlAYSt-k7kGsrkHxPk-20" target="hOGlAYSt-k7kGsrkHxPk-48" edge="1">
          <mxGeometry relative="1" as="geometry">
            <mxPoint x="970.04" y="2079.4999999999995" as="sourcePoint" />
          </mxGeometry>
        </mxCell>
        <mxCell id="hOGlAYSt-k7kGsrkHxPk-40" value="inputs" style="edgeStyle=orthogonalEdgeStyle;rounded=0;orthogonalLoop=1;jettySize=auto;html=1;dashed=1;startArrow=classic;startFill=1;endArrow=none;endFill=0;fontFamily=Roboto Mono;fontSource=https%3A%2F%2Ffonts.googleapis.com%2Fcss%3Ffamily%3DRoboto%2BMono;fontSize=9;" parent="1" source="hOGlAYSt-k7kGsrkHxPk-42" target="hOGlAYSt-k7kGsrkHxPk-43" edge="1">
          <mxGeometry relative="1" as="geometry" />
        </mxCell>
        <mxCell id="hOGlAYSt-k7kGsrkHxPk-41" value="produces" style="edgeStyle=orthogonalEdgeStyle;rounded=0;orthogonalLoop=1;jettySize=auto;html=1;dashed=1;fontFamily=Roboto Mono;fontSource=https%3A%2F%2Ffonts.googleapis.com%2Fcss%3Ffamily%3DRoboto%2BMono;fontSize=9;" parent="1" source="hOGlAYSt-k7kGsrkHxPk-42" edge="1">
          <mxGeometry relative="1" as="geometry">
            <mxPoint x="2160.342105263158" y="1840" as="targetPoint" />
          </mxGeometry>
        </mxCell>
        <mxCell id="hOGlAYSt-k7kGsrkHxPk-42" value="&lt;b style=&quot;font-size: 9px;&quot;&gt;appspec.yaml&lt;/b&gt;&lt;div style=&quot;font-size: 9px;&quot;&gt;Define commands and settings for deploy php app with&amp;nbsp;&lt;/div&gt;&lt;div style=&quot;font-size: 9px;&quot;&gt;Codeploy service to EC2 instance&lt;/div&gt;&lt;div style=&quot;font-size: 9px;&quot;&gt;&amp;nbsp;&lt;/div&gt;&lt;div style=&quot;font-size: 9px;&quot;&gt;(store in the source code root directory repo)&lt;/div&gt;" style="verticalLabelPosition=middle;html=1;verticalAlign=middle;align=left;strokeColor=none;fillColor=#00BEF2;shape=mxgraph.azure.file_2;pointerEvents=1;labelPosition=right;fontFamily=Roboto Mono;fontSource=https%3A%2F%2Ffonts.googleapis.com%2Fcss%3Ffamily%3DRoboto%2BMono;fontSize=9;" parent="1" vertex="1">
          <mxGeometry x="2136.5" y="1686.5" width="47.5" height="50" as="geometry" />
        </mxCell>
        <mxCell id="hOGlAYSt-k7kGsrkHxPk-43" value="&lt;div style=&quot;font-size: 9px;&quot;&gt;&lt;b style=&quot;font-size: 9px;&quot;&gt;Hooks&lt;/b&gt;&lt;/div&gt;- ApplicationStop&lt;div style=&quot;font-size: 9px;&quot;&gt;- DownloadBundle&lt;/div&gt;&lt;div style=&quot;font-size: 9px;&quot;&gt;- BeforeInstall&lt;/div&gt;&lt;div style=&quot;font-size: 9px;&quot;&gt;- Install&lt;/div&gt;&lt;div style=&quot;font-size: 9px;&quot;&gt;-&amp;nbsp;AfterInstall&lt;/div&gt;&lt;div style=&quot;font-size: 9px;&quot;&gt;- ApplicationStart&lt;/div&gt;&lt;div style=&quot;font-size: 9px;&quot;&gt;- ValidateService&lt;/div&gt;" style="text;html=1;align=left;verticalAlign=middle;whiteSpace=wrap;rounded=0;fontFamily=Roboto Mono;fontSource=https%3A%2F%2Ffonts.googleapis.com%2Fcss%3Ffamily%3DRoboto%2BMono;fontSize=9;" parent="1" vertex="1">
          <mxGeometry x="2092.56" y="1500" width="135.37" height="108.5" as="geometry" />
        </mxCell>
        <mxCell id="hOGlAYSt-k7kGsrkHxPk-44" value="&lt;div&gt;&lt;span style=&quot;background-color: initial;&quot;&gt;artifact&lt;/span&gt;&lt;br&gt;&lt;/div&gt;" style="shape=folder;fontStyle=1;spacingTop=10;tabWidth=40;tabHeight=14;tabPosition=left;html=1;whiteSpace=wrap;fillColor=#FFFF66;fontFamily=Roboto Mono;fontSource=https%3A%2F%2Ffonts.googleapis.com%2Fcss%3Ffamily%3DRoboto%2BMono;fontSize=9;" parent="1" vertex="1">
          <mxGeometry x="2135.88" y="1850" width="60" height="50" as="geometry" />
        </mxCell>
        <mxCell id="hOGlAYSt-k7kGsrkHxPk-45" value="You can use this output artifacts as a inputs to the next stages" style="text;html=1;align=left;verticalAlign=middle;whiteSpace=wrap;rounded=0;fontFamily=Roboto Mono;fontSource=https%3A%2F%2Ffonts.googleapis.com%2Fcss%3Ffamily%3DRoboto%2BMono;fontSize=9;" parent="1" vertex="1">
          <mxGeometry x="2080" y="1910" width="190.62" height="30" as="geometry" />
        </mxCell>
        <mxCell id="hOGlAYSt-k7kGsrkHxPk-46" value="Option 1: Logs in&lt;div style=&quot;font-size: 9px;&quot;&gt;&lt;b&gt;pipeline execution details&lt;/b&gt;&lt;/div&gt;" style="text;html=1;align=center;verticalAlign=middle;whiteSpace=wrap;rounded=0;fontSize=9;fontFamily=Roboto Mono;fontSource=https%3A%2F%2Ffonts.googleapis.com%2Fcss%3Ffamily%3DRoboto%2BMono;fillColor=#d5e8d4;strokeColor=#82b366;" parent="1" vertex="1">
          <mxGeometry x="-336" y="1800" width="100" height="50" as="geometry" />
        </mxCell>
        <mxCell id="hOGlAYSt-k7kGsrkHxPk-47" style="edgeStyle=orthogonalEdgeStyle;rounded=0;orthogonalLoop=1;jettySize=auto;html=1;entryX=0.5;entryY=1;entryDx=0;entryDy=0;dashed=1;" parent="1" source="hOGlAYSt-k7kGsrkHxPk-12" target="hOGlAYSt-k7kGsrkHxPk-46" edge="1">
          <mxGeometry relative="1" as="geometry" />
        </mxCell>
        <mxCell id="hOGlAYSt-k7kGsrkHxPk-48" value="Option 2: Logs in&lt;div style=&quot;font-size: 9px;&quot;&gt;CodeDeploy &amp;gt; Deployments &amp;gt; &lt;b&gt;Deployments history&lt;/b&gt;&lt;/div&gt;" style="text;html=1;align=center;verticalAlign=middle;whiteSpace=wrap;rounded=0;fontSize=9;fontFamily=Roboto Mono;fontSource=https%3A%2F%2Ffonts.googleapis.com%2Fcss%3Ffamily%3DRoboto%2BMono;fillColor=#d5e8d4;strokeColor=#82b366;" parent="1" vertex="1">
          <mxGeometry x="915" y="1850" width="110" height="44.57" as="geometry" />
        </mxCell>
        <mxCell id="hOGlAYSt-k7kGsrkHxPk-49" value="&lt;b&gt;Source Stage &lt;/b&gt;builds or generate a &lt;i&gt;source artifact&lt;/i&gt; and next &lt;b&gt;Deploy&amp;nbsp;Stage (CodeDeploy) &lt;/b&gt;takes this source artifact as its input" style="edgeStyle=orthogonalEdgeStyle;rounded=0;orthogonalLoop=1;jettySize=auto;html=1;exitX=0.5;exitY=1;exitDx=0;exitDy=0;dashed=1;" parent="1" source="hOGlAYSt-k7kGsrkHxPk-51" edge="1">
          <mxGeometry relative="1" as="geometry">
            <mxPoint x="-160.0000000000005" y="2390" as="sourcePoint" />
            <mxPoint x="1120" y="2290" as="targetPoint" />
            <Array as="points">
              <mxPoint x="-160" y="2410" />
              <mxPoint x="1120" y="2410" />
            </Array>
          </mxGeometry>
        </mxCell>
        <mxCell id="hOGlAYSt-k7kGsrkHxPk-50" value="produces" style="edgeStyle=orthogonalEdgeStyle;rounded=0;orthogonalLoop=1;jettySize=auto;html=1;exitX=0.5;exitY=1;exitDx=0;exitDy=0;dashed=1;labelBackgroundColor=none;fontSize=9;fontFamily=Roboto Mono;fontSource=https%3A%2F%2Ffonts.googleapis.com%2Fcss%3Ffamily%3DRoboto%2BMono;" parent="1" edge="1">
          <mxGeometry x="0.1429" y="10" relative="1" as="geometry">
            <mxPoint x="-158.96000000000004" y="2280" as="sourcePoint" />
            <mxPoint x="-158.96000000000004" y="2350" as="targetPoint" />
            <Array as="points" />
            <mxPoint as="offset" />
          </mxGeometry>
        </mxCell>
        <mxCell id="hOGlAYSt-k7kGsrkHxPk-51" value="&lt;div&gt;Source&lt;/div&gt;artifact" style="shape=folder;fontStyle=1;spacingTop=10;tabWidth=40;tabHeight=14;tabPosition=left;html=1;whiteSpace=wrap;fillColor=#FFFF66;fontFamily=Roboto Mono;fontSource=https%3A%2F%2Ffonts.googleapis.com%2Fcss%3Ffamily%3DRoboto%2BMono;fontSize=9;" parent="1" vertex="1">
          <mxGeometry x="-187.45999999999998" y="2350" width="55" height="50" as="geometry" />
        </mxCell>
        <UserObject label="&lt;a href=&quot;https://us-east-2.console.aws.amazon.com/codesuite/codepipeline/pipelines/PHPProject/view?region=us-east-2#&quot;&gt;PHPProject | CodePipeline | us-east-2 (amazon.com)&lt;/a&gt;" link="&lt;a href=&quot;https://us-east-2.console.aws.amazon.com/codesuite/codepipeline/pipelines/PHPProject/view?region=us-east-2#&quot;&gt;PHPProject | CodePipeline | us-east-2 (amazon.com)&lt;/a&gt;" id="hOGlAYSt-k7kGsrkHxPk-52">
          <mxCell style="text;whiteSpace=wrap;html=1;" parent="1" vertex="1">
            <mxGeometry x="-790" y="2010" width="320" height="40" as="geometry" />
          </mxCell>
        </UserObject>
        <mxCell id="hOGlAYSt-k7kGsrkHxPk-53" style="edgeStyle=orthogonalEdgeStyle;rounded=0;orthogonalLoop=1;jettySize=auto;html=1;entryX=1;entryY=0.5;entryDx=0;entryDy=0;" parent="1" source="hOGlAYSt-k7kGsrkHxPk-54" target="hOGlAYSt-k7kGsrkHxPk-48" edge="1">
          <mxGeometry relative="1" as="geometry" />
        </mxCell>
        <mxCell id="hOGlAYSt-k7kGsrkHxPk-54" value="Lifecycle events" style="text;html=1;align=center;verticalAlign=middle;whiteSpace=wrap;rounded=0;fontSize=9;fontFamily=Roboto Mono;fontSource=https%3A%2F%2Ffonts.googleapis.com%2Fcss%3Ffamily%3DRoboto%2BMono;" parent="1" vertex="1">
          <mxGeometry x="1107" y="1862.29" width="110" height="20" as="geometry" />
        </mxCell>
        <mxCell id="hOGlAYSt-k7kGsrkHxPk-55" value="&lt;div style=&quot;font-size: 9px;&quot;&gt;&lt;br&gt;&lt;/div&gt;- ApplicationStop&lt;div style=&quot;font-size: 9px;&quot;&gt;- DownloadBundle&lt;/div&gt;&lt;div style=&quot;font-size: 9px;&quot;&gt;- BeforeInstall&lt;/div&gt;&lt;div style=&quot;font-size: 9px;&quot;&gt;- Install&lt;/div&gt;&lt;div style=&quot;font-size: 9px;&quot;&gt;-&amp;nbsp;AfterInstall&lt;/div&gt;&lt;div style=&quot;font-size: 9px;&quot;&gt;- ApplicationStart&lt;/div&gt;&lt;div style=&quot;font-size: 9px;&quot;&gt;- ValidateService&lt;/div&gt;" style="text;html=1;align=left;verticalAlign=middle;whiteSpace=wrap;rounded=0;fontFamily=Roboto Mono;fontSource=https%3A%2F%2Ffonts.googleapis.com%2Fcss%3Ffamily%3DRoboto%2BMono;fontSize=9;" parent="1" vertex="1">
          <mxGeometry x="1215" y="1825.37" width="135.37" height="99.25" as="geometry" />
        </mxCell>
        <mxCell id="hOGlAYSt-k7kGsrkHxPk-56" value="" style="sketch=0;html=1;aspect=fixed;strokeColor=none;shadow=0;align=center;fillColor=#2D9C5E;verticalAlign=top;labelPosition=center;verticalLabelPosition=bottom;shape=mxgraph.gcp2.check" parent="1" vertex="1">
          <mxGeometry x="1270" y="1875.29" width="12.5" height="10" as="geometry" />
        </mxCell>
        <mxCell id="hOGlAYSt-k7kGsrkHxPk-57" value="Option 3: Logs in&amp;nbsp;&lt;b&gt;CodeDeploy agent logs&lt;/b&gt;&amp;nbsp;&lt;div&gt;&lt;div style=&quot;&quot;&gt;&lt;span style=&quot;background-color: initial;&quot;&gt;-&amp;nbsp;&lt;/span&gt;&lt;span style=&quot;background-color: initial;&quot;&gt;/var/log/aws/codedeploy-agent/codedeploy-agent.log&lt;/span&gt;&lt;/div&gt;&lt;div style=&quot;&quot;&gt;&lt;span style=&quot;background-color: initial;&quot;&gt;-&amp;nbsp;&lt;/span&gt;&lt;span style=&quot;background-color: initial;&quot;&gt;/opt/codedeploy-agent/deployment-root/&lt;/span&gt;&lt;/div&gt;&lt;/div&gt;" style="text;html=1;align=left;verticalAlign=middle;whiteSpace=wrap;rounded=0;fontSize=9;fontFamily=Roboto Mono;fontSource=https%3A%2F%2Ffonts.googleapis.com%2Fcss%3Ffamily%3DRoboto%2BMono;fillColor=#d5e8d4;strokeColor=#82b366;" parent="1" vertex="1">
          <mxGeometry x="1421.47" y="1862.29" width="248.53" height="57.71" as="geometry" />
        </mxCell>
        <mxCell id="hOGlAYSt-k7kGsrkHxPk-58" style="edgeStyle=orthogonalEdgeStyle;rounded=0;orthogonalLoop=1;jettySize=auto;html=1;dashed=1;" parent="1" source="hOGlAYSt-k7kGsrkHxPk-20" target="hOGlAYSt-k7kGsrkHxPk-57" edge="1">
          <mxGeometry relative="1" as="geometry">
            <Array as="points">
              <mxPoint x="980" y="1960" />
              <mxPoint x="1546" y="1960" />
            </Array>
          </mxGeometry>
        </mxCell>
        <mxCell id="hOGlAYSt-k7kGsrkHxPk-59" value="Option 4: Logs in&amp;nbsp;&lt;b&gt;CloudWatch log groups&lt;/b&gt;&amp;nbsp;&lt;div&gt;&lt;div style=&quot;&quot;&gt;&lt;br&gt;&lt;/div&gt;&lt;/div&gt;" style="text;html=1;align=left;verticalAlign=middle;whiteSpace=wrap;rounded=0;fontSize=9;fontFamily=Roboto Mono;fontSource=https%3A%2F%2Ffonts.googleapis.com%2Fcss%3Ffamily%3DRoboto%2BMono;fillColor=#d5e8d4;strokeColor=#82b366;" parent="1" vertex="1">
          <mxGeometry x="1740" y="1862.29" width="150" height="47.71" as="geometry" />
        </mxCell>
        <mxCell id="hOGlAYSt-k7kGsrkHxPk-60" value="" style="sketch=0;points=[[0,0,0],[0.25,0,0],[0.5,0,0],[0.75,0,0],[1,0,0],[0,1,0],[0.25,1,0],[0.5,1,0],[0.75,1,0],[1,1,0],[0,0.25,0],[0,0.5,0],[0,0.75,0],[1,0.25,0],[1,0.5,0],[1,0.75,0]];points=[[0,0,0],[0.25,0,0],[0.5,0,0],[0.75,0,0],[1,0,0],[0,1,0],[0.25,1,0],[0.5,1,0],[0.75,1,0],[1,1,0],[0,0.25,0],[0,0.5,0],[0,0.75,0],[1,0.25,0],[1,0.5,0],[1,0.75,0]];outlineConnect=0;fontColor=#232F3E;fillColor=#E7157B;strokeColor=#ffffff;dashed=0;verticalLabelPosition=bottom;verticalAlign=top;align=center;html=1;fontSize=12;fontStyle=0;aspect=fixed;shape=mxgraph.aws4.resourceIcon;resIcon=mxgraph.aws4.cloudwatch_2;" parent="1" vertex="1">
          <mxGeometry x="1870.5" y="1847.29" width="28" height="28" as="geometry" />
        </mxCell>
      </root>
    </mxGraphModel>
  </diagram>
</mxfile>
